<!-- Generated by IcoMoon.io -->
<svg version="1.1" xmlns="http://www.w3.org/2000/svg" width="32" height="32" viewBox="0 0 32 32">
<title>twitter</title>
<path d="M16 0.64c-8.483 0-15.36 6.877-15.36 15.36s6.877 15.36 15.36 15.36 15.36-6.877 15.36-15.36-6.877-15.36-15.36-15.36zM22.248 13.222c0.006 0.131 0.008 0.262 0.008 0.39 0 4-3.042 8.61-8.606 8.61-0.004 0-0.009 0-0.014 0-1.717 0-3.317-0.507-4.655-1.38l0.033 0.020c0.235 0.029 0.477 0.040 0.722 0.040 0.004 0 0.009 0 0.014 0 1.419 0 2.723-0.488 3.756-1.304l-0.013 0.010c-1.317-0.027-2.426-0.889-2.819-2.078l-0.006-0.021c0.171 0.034 0.367 0.053 0.568 0.053 0.284 0 0.558-0.039 0.818-0.111l-0.021 0.005c-1.394-0.289-2.427-1.507-2.427-2.966v-0.037c0.408 0.226 0.875 0.363 1.371 0.379-0.818-0.55-1.348-1.472-1.348-2.517 0-0.562 0.153-1.088 0.42-1.538l-0.008 0.014c1.499 1.833 3.715 3.031 6.214 3.162l0.021 0.001c-0.051-0.208-0.081-0.448-0.081-0.694 0-1.671 1.355-3.026 3.026-3.026 0.871 0 1.657 0.368 2.209 0.958l0.002 0.002c0.724-0.146 1.367-0.401 1.947-0.75l-0.027 0.015c-0.234 0.713-0.704 1.295-1.316 1.668l-0.013 0.008c0.645-0.079 1.232-0.248 1.776-0.494l-0.038 0.015c-0.414 0.614-0.914 1.133-1.491 1.554l-0.017 0.012z"></path>
</svg>
